<svg width="256" height="46" viewBox="0 0 256 46" fill="none" xmlns="http://www.w3.org/2000/svg">
<g clip-path="url(#clip0_1_3)">
<mask id="path-1-inside-1_1_3" fill="white">
<path d="M119.233 3.73483L116.698 18.469H132.415L132.035 20.7263H116.318L113.698 35.9529H111.543L117.458 1.47752H137.232L136.809 3.73483H119.233ZM141.457 10.2441H143.57L139.168 35.9529H137.056L141.457 10.2441ZM143.823 3.98929C143.611 3.9946 143.401 3.94927 143.205 3.85609C143.008 3.76292 142.831 3.62387 142.682 3.44754C142.534 3.28242 142.416 3.08361 142.336 2.86338C142.256 2.64314 142.216 2.40615 142.218 2.16702C142.214 1.88439 142.259 1.60379 142.35 1.34164C142.44 1.07948 142.575 0.84104 142.746 0.640258C142.916 0.430232 143.123 0.264618 143.352 0.154277C143.582 0.0439367 143.829 -0.00863857 144.077 1.5134e-09C144.291 -0.00392766 144.505 0.0419426 144.704 0.134946C144.904 0.227949 145.085 0.36623 145.238 0.541756C145.392 0.703287 145.515 0.900853 145.599 1.12152C145.682 1.34219 145.725 1.58098 145.724 1.82227C145.732 2.11138 145.687 2.39905 145.592 2.66641C145.497 2.93378 145.355 3.1748 145.175 3.37366C144.996 3.57578 144.784 3.73432 144.552 3.84002C144.32 3.94572 144.072 3.99647 143.823 3.98929ZM151.935 28.5161C151.823 29.1147 151.764 29.7254 151.759 30.3383C151.759 32.8009 152.886 34.0321 155.139 34.0321C156.443 34.0496 157.711 33.5422 158.731 32.5956L159.364 34.4179C158.013 35.6261 156.341 36.2421 154.639 36.1581C153.292 36.2518 151.966 35.7308 150.942 34.7052C150.489 34.1845 150.136 33.5572 149.906 32.8652C149.677 32.1731 149.576 31.4321 149.611 30.6913C149.611 30.0293 149.67 29.3691 149.788 28.7213L152.611 12.3537H148.513L148.851 10.2359H152.949L153.921 4.62134H156.034L155.062 10.2359H162.076L161.738 12.3537H154.724L151.935 28.5161ZM179.652 10.0471C181.751 9.88572 183.823 10.6703 185.441 12.2388C186.129 13.0171 186.666 13.9584 187.016 14.9991C187.365 16.0398 187.52 17.1558 187.469 18.2719C187.464 19.2152 187.379 20.1555 187.215 21.0792L184.68 35.9529H182.567L185.103 21.0792C185.248 20.2695 185.319 19.444 185.314 18.6167C185.36 17.7454 185.243 16.8728 184.969 16.0602C184.695 15.2477 184.272 14.5148 183.729 13.9133C182.415 12.7173 180.766 12.1323 179.103 12.2716C176.802 12.1786 174.55 13.0624 172.765 14.7587C170.966 16.6386 169.783 19.1894 169.42 21.9739L167.019 35.9529H164.906L169.308 10.2441H171.378L170.533 15.1199C171.521 13.4651 172.87 12.1475 174.441 11.303C176.081 10.4468 177.862 10.0182 179.659 10.0471H179.652ZM195.201 23.6403C195.144 24.3626 195.116 24.9044 195.116 25.2655C195.05 26.4468 195.2 27.6308 195.557 28.739C195.914 29.8472 196.47 30.8541 197.186 31.6927C198.895 33.3172 201.071 34.1189 203.271 33.9336C204.737 33.9515 206.192 33.6422 207.559 33.0225C208.798 32.4701 209.917 31.6037 210.833 30.4861L211.805 32.2099C210.755 33.5074 209.461 34.5023 208.024 35.1156C206.449 35.8111 204.778 36.159 203.094 36.1417C200.417 36.3188 197.782 35.297 195.729 33.2852C194.817 32.2689 194.104 31.0349 193.64 29.6677C193.176 28.3004 192.971 26.8323 193.039 25.364C193.004 22.6442 193.541 19.9559 194.602 17.5332C195.583 15.2797 197.073 13.381 198.912 12.0418C200.761 10.7068 202.898 10.0148 205.073 10.0471C206.32 9.97167 207.566 10.1853 208.741 10.6756C209.916 11.166 210.996 11.9233 211.918 12.9036C212.786 13.9404 213.46 15.1764 213.896 16.533C214.333 17.8896 214.522 19.3371 214.453 20.7837C214.443 21.7421 214.363 22.6978 214.214 23.6403H195.201ZM205.045 12.1649C202.773 12.11 200.565 13.0402 198.848 14.7752C197.082 16.5832 195.885 19.0274 195.447 21.7195H212.432C212.465 21.2938 212.479 20.8664 212.474 20.439C212.528 19.3151 212.375 18.1908 212.025 17.1417C211.676 16.0925 211.137 15.1429 210.446 14.3565C208.957 12.8383 207.021 12.0526 205.045 12.1649ZM224.692 36.1581C223.017 36.1675 221.352 35.8598 219.763 35.247C218.415 34.7803 217.169 33.9827 216.108 32.9076L217.249 30.9868C218.188 31.9897 219.306 32.7381 220.523 33.1784C221.918 33.7285 223.381 34.0059 224.854 33.9993C226.699 34.1224 228.537 33.6359 230.156 32.5956C230.742 32.1988 231.225 31.6262 231.556 30.9375C231.886 30.2488 232.052 29.4693 232.037 28.6802C232.053 28.2628 231.994 27.8459 231.863 27.4569C231.732 27.0679 231.532 26.7155 231.276 26.4229C230.744 25.848 230.109 25.4189 229.417 25.167C228.685 24.8934 227.671 24.5897 226.375 24.2559C225.122 23.978 223.886 23.5995 222.678 23.1231C221.762 22.7505 220.941 22.1154 220.291 21.2762C219.607 20.3195 219.26 19.0965 219.319 17.8533C219.297 16.7393 219.516 15.6367 219.955 14.647C220.394 13.6573 221.04 12.8123 221.833 12.1895C223.814 10.6763 226.157 9.93482 228.523 10.0717C229.909 10.0681 231.288 10.292 232.621 10.7366C233.778 11.0811 234.859 11.7109 235.79 12.5835L234.818 14.5043C233.946 13.7166 232.947 13.139 231.882 12.8051C230.736 12.4272 229.551 12.2365 228.361 12.2388C226.575 12.1303 224.803 12.6447 223.269 13.7163C222.692 14.1189 222.214 14.6905 221.885 15.3744C221.555 16.0583 221.384 16.8308 221.389 17.6153C221.37 18.0453 221.428 18.4753 221.559 18.878C221.69 19.2807 221.891 19.6473 222.15 19.9547C222.696 20.5562 223.354 21.0028 224.072 21.2598C224.847 21.5553 225.882 21.8672 227.178 22.1956C228.416 22.4696 229.637 22.8398 230.832 23.3037C231.727 23.6604 232.533 24.2694 233.177 25.0767C233.858 26.006 234.206 27.2053 234.149 28.4258C234.174 29.5486 233.95 30.6601 233.499 31.6523C233.047 32.6446 232.383 33.4842 231.572 34.0896C229.512 35.5767 227.112 36.2981 224.692 36.1581ZM244.888 36.1581C243.213 36.1675 241.549 35.8598 239.959 35.247C238.611 34.7803 237.365 33.9827 236.304 32.9076L237.445 30.9868C238.384 31.9897 239.502 32.7381 240.719 33.1784C242.114 33.7285 243.577 34.0059 245.05 33.9993C246.896 34.1224 248.733 33.6359 250.352 32.5956C250.938 32.1988 251.421 31.6262 251.752 30.9375C252.082 30.2488 252.248 29.4693 252.233 28.6802C252.249 28.2628 252.19 27.8459 252.059 27.4569C251.928 27.0679 251.728 26.7155 251.472 26.4229C250.94 25.848 250.305 25.4189 249.613 25.167C248.881 24.8934 247.867 24.5897 246.571 24.2559C245.318 23.978 244.082 23.5995 242.874 23.1231C241.958 22.7506 241.137 22.1155 240.487 21.2762C239.803 20.3195 239.456 19.0965 239.515 17.8533C239.493 16.7393 239.712 15.6367 240.151 14.647C240.591 13.6573 241.236 12.8123 242.029 12.1895C244.01 10.6763 246.353 9.93482 248.719 10.0717C250.105 10.0681 251.485 10.292 252.817 10.7366C253.974 11.0811 255.055 11.7109 255.986 12.5835L255.014 14.5043C254.142 13.7166 253.143 13.139 252.078 12.8051C250.932 12.4272 249.747 12.2365 248.557 12.2388C246.771 12.1303 244.999 12.6447 243.465 13.7163C242.888 14.1189 242.41 14.6905 242.081 15.3744C241.751 16.0583 241.58 16.8308 241.585 17.6153C241.566 18.0453 241.624 18.4753 241.755 18.878C241.886 19.2807 242.087 19.6473 242.346 19.9547C242.892 20.5562 243.55 21.0028 244.268 21.2598C245.043 21.5553 246.078 21.8672 247.374 22.1956C248.612 22.4696 249.833 22.8398 251.028 23.3037C251.926 23.6674 252.731 24.2851 253.373 25.1014C254.055 26.0306 254.403 27.2299 254.345 28.4504C254.37 29.5733 254.146 30.6847 253.695 31.677C253.243 32.6693 252.58 33.5088 251.768 34.1142C249.705 35.5927 247.306 36.3055 244.888 36.1581Z"/>
</mask>
<path d="M119.233 3.73483L116.698 18.469H132.415L132.035 20.7263H116.318L113.698 35.9529H111.543L117.458 1.47752H137.232L136.809 3.73483H119.233ZM141.457 10.2441H143.57L139.168 35.9529H137.056L141.457 10.2441ZM143.823 3.98929C143.611 3.9946 143.401 3.94927 143.205 3.85609C143.008 3.76292 142.831 3.62387 142.682 3.44754C142.534 3.28242 142.416 3.08361 142.336 2.86338C142.256 2.64314 142.216 2.40615 142.218 2.16702C142.214 1.88439 142.259 1.60379 142.35 1.34164C142.44 1.07948 142.575 0.84104 142.746 0.640258C142.916 0.430232 143.123 0.264618 143.352 0.154277C143.582 0.0439367 143.829 -0.00863857 144.077 1.5134e-09C144.291 -0.00392766 144.505 0.0419426 144.704 0.134946C144.904 0.227949 145.085 0.36623 145.238 0.541756C145.392 0.703287 145.515 0.900853 145.599 1.12152C145.682 1.34219 145.725 1.58098 145.724 1.82227C145.732 2.11138 145.687 2.39905 145.592 2.66641C145.497 2.93378 145.355 3.1748 145.175 3.37366C144.996 3.57578 144.784 3.73432 144.552 3.84002C144.32 3.94572 144.072 3.99647 143.823 3.98929ZM151.935 28.5161C151.823 29.1147 151.764 29.7254 151.759 30.3383C151.759 32.8009 152.886 34.0321 155.139 34.0321C156.443 34.0496 157.711 33.5422 158.731 32.5956L159.364 34.4179C158.013 35.6261 156.341 36.2421 154.639 36.1581C153.292 36.2518 151.966 35.7308 150.942 34.7052C150.489 34.1845 150.136 33.5572 149.906 32.8652C149.677 32.1731 149.576 31.4321 149.611 30.6913C149.611 30.0293 149.67 29.3691 149.788 28.7213L152.611 12.3537H148.513L148.851 10.2359H152.949L153.921 4.62134H156.034L155.062 10.2359H162.076L161.738 12.3537H154.724L151.935 28.5161ZM179.652 10.0471C181.751 9.88572 183.823 10.6703 185.441 12.2388C186.129 13.0171 186.666 13.9584 187.016 14.9991C187.365 16.0398 187.52 17.1558 187.469 18.2719C187.464 19.2152 187.379 20.1555 187.215 21.0792L184.68 35.9529H182.567L185.103 21.0792C185.248 20.2695 185.319 19.444 185.314 18.6167C185.36 17.7454 185.243 16.8728 184.969 16.0602C184.695 15.2477 184.272 14.5148 183.729 13.9133C182.415 12.7173 180.766 12.1323 179.103 12.2716C176.802 12.1786 174.55 13.0624 172.765 14.7587C170.966 16.6386 169.783 19.1894 169.42 21.9739L167.019 35.9529H164.906L169.308 10.2441H171.378L170.533 15.1199C171.521 13.4651 172.87 12.1475 174.441 11.303C176.081 10.4468 177.862 10.0182 179.659 10.0471H179.652ZM195.201 23.6403C195.144 24.3626 195.116 24.9044 195.116 25.2655C195.05 26.4468 195.2 27.6308 195.557 28.739C195.914 29.8472 196.47 30.8541 197.186 31.6927C198.895 33.3172 201.071 34.1189 203.271 33.9336C204.737 33.9515 206.192 33.6422 207.559 33.0225C208.798 32.4701 209.917 31.6037 210.833 30.4861L211.805 32.2099C210.755 33.5074 209.461 34.5023 208.024 35.1156C206.449 35.8111 204.778 36.159 203.094 36.1417C200.417 36.3188 197.782 35.297 195.729 33.2852C194.817 32.2689 194.104 31.0349 193.64 29.6677C193.176 28.3004 192.971 26.8323 193.039 25.364C193.004 22.6442 193.541 19.9559 194.602 17.5332C195.583 15.2797 197.073 13.381 198.912 12.0418C200.761 10.7068 202.898 10.0148 205.073 10.0471C206.32 9.97167 207.566 10.1853 208.741 10.6756C209.916 11.166 210.996 11.9233 211.918 12.9036C212.786 13.9404 213.46 15.1764 213.896 16.533C214.333 17.8896 214.522 19.3371 214.453 20.7837C214.443 21.7421 214.363 22.6978 214.214 23.6403H195.201ZM205.045 12.1649C202.773 12.11 200.565 13.0402 198.848 14.7752C197.082 16.5832 195.885 19.0274 195.447 21.7195H212.432C212.465 21.2938 212.479 20.8664 212.474 20.439C212.528 19.3151 212.375 18.1908 212.025 17.1417C211.676 16.0925 211.137 15.1429 210.446 14.3565C208.957 12.8383 207.021 12.0526 205.045 12.1649ZM224.692 36.1581C223.017 36.1675 221.352 35.8598 219.763 35.247C218.415 34.7803 217.169 33.9827 216.108 32.9076L217.249 30.9868C218.188 31.9897 219.306 32.7381 220.523 33.1784C221.918 33.7285 223.381 34.0059 224.854 33.9993C226.699 34.1224 228.537 33.6359 230.156 32.5956C230.742 32.1988 231.225 31.6262 231.556 30.9375C231.886 30.2488 232.052 29.4693 232.037 28.6802C232.053 28.2628 231.994 27.8459 231.863 27.4569C231.732 27.0679 231.532 26.7155 231.276 26.4229C230.744 25.848 230.109 25.4189 229.417 25.167C228.685 24.8934 227.671 24.5897 226.375 24.2559C225.122 23.978 223.886 23.5995 222.678 23.1231C221.762 22.7505 220.941 22.1154 220.291 21.2762C219.607 20.3195 219.26 19.0965 219.319 17.8533C219.297 16.7393 219.516 15.6367 219.955 14.647C220.394 13.6573 221.04 12.8123 221.833 12.1895C223.814 10.6763 226.157 9.93482 228.523 10.0717C229.909 10.0681 231.288 10.292 232.621 10.7366C233.778 11.0811 234.859 11.7109 235.79 12.5835L234.818 14.5043C233.946 13.7166 232.947 13.139 231.882 12.8051C230.736 12.4272 229.551 12.2365 228.361 12.2388C226.575 12.1303 224.803 12.6447 223.269 13.7163C222.692 14.1189 222.214 14.6905 221.885 15.3744C221.555 16.0583 221.384 16.8308 221.389 17.6153C221.37 18.0453 221.428 18.4753 221.559 18.878C221.69 19.2807 221.891 19.6473 222.15 19.9547C222.696 20.5562 223.354 21.0028 224.072 21.2598C224.847 21.5553 225.882 21.8672 227.178 22.1956C228.416 22.4696 229.637 22.8398 230.832 23.3037C231.727 23.6604 232.533 24.2694 233.177 25.0767C233.858 26.006 234.206 27.2053 234.149 28.4258C234.174 29.5486 233.95 30.6601 233.499 31.6523C233.047 32.6446 232.383 33.4842 231.572 34.0896C229.512 35.5767 227.112 36.2981 224.692 36.1581ZM244.888 36.1581C243.213 36.1675 241.549 35.8598 239.959 35.247C238.611 34.7803 237.365 33.9827 236.304 32.9076L237.445 30.9868C238.384 31.9897 239.502 32.7381 240.719 33.1784C242.114 33.7285 243.577 34.0059 245.05 33.9993C246.896 34.1224 248.733 33.6359 250.352 32.5956C250.938 32.1988 251.421 31.6262 251.752 30.9375C252.082 30.2488 252.248 29.4693 252.233 28.6802C252.249 28.2628 252.19 27.8459 252.059 27.4569C251.928 27.0679 251.728 26.7155 251.472 26.4229C250.94 25.848 250.305 25.4189 249.613 25.167C248.881 24.8934 247.867 24.5897 246.571 24.2559C245.318 23.978 244.082 23.5995 242.874 23.1231C241.958 22.7506 241.137 22.1155 240.487 21.2762C239.803 20.3195 239.456 19.0965 239.515 17.8533C239.493 16.7393 239.712 15.6367 240.151 14.647C240.591 13.6573 241.236 12.8123 242.029 12.1895C244.01 10.6763 246.353 9.93482 248.719 10.0717C250.105 10.0681 251.485 10.292 252.817 10.7366C253.974 11.0811 255.055 11.7109 255.986 12.5835L255.014 14.5043C254.142 13.7166 253.143 13.139 252.078 12.8051C250.932 12.4272 249.747 12.2365 248.557 12.2388C246.771 12.1303 244.999 12.6447 243.465 13.7163C242.888 14.1189 242.41 14.6905 242.081 15.3744C241.751 16.0583 241.58 16.8308 241.585 17.6153C241.566 18.0453 241.624 18.4753 241.755 18.878C241.886 19.2807 242.087 19.6473 242.346 19.9547C242.892 20.5562 243.55 21.0028 244.268 21.2598C245.043 21.5553 246.078 21.8672 247.374 22.1956C248.612 22.4696 249.833 22.8398 251.028 23.3037C251.926 23.6674 252.731 24.2851 253.373 25.1014C254.055 26.0306 254.403 27.2299 254.345 28.4504C254.37 29.5733 254.146 30.6847 253.695 31.677C253.243 32.6693 252.58 33.5088 251.768 34.1142C249.705 35.5927 247.306 36.3055 244.888 36.1581Z" stroke="white" stroke-width="2" mask="url(#path-1-inside-1_1_3)"/>
<path d="M14.1964 10.2441L13.5204 14.2827H26.0197L24.5832 22.6553H12.0416L11.2811 27.1863H26.1112L24.5902 35.9529H0L5.91517 1.47754H29.9561L28.4351 10.2441H14.1964ZM58.1376 9.01287L53.5323 35.9529H44.5328L44.9553 33.4904C44.135 34.4446 43.1591 35.1977 42.0851 35.7052C41.0112 36.2128 39.8609 36.4644 38.7021 36.4454C37.0952 36.436 35.5198 35.9259 34.139 34.9679C32.6351 33.9362 31.4008 32.4464 30.5687 30.6585C29.6195 28.6117 29.1461 26.311 29.1956 23.985C29.1658 21.2353 29.7403 18.5225 30.8645 16.1049C31.9148 13.8178 33.4678 11.8972 35.3642 10.5396C37.2032 9.2094 39.3264 8.50961 41.4907 8.52036C42.7432 8.3762 44.0066 8.6083 45.1603 9.19454C46.3141 9.78079 47.3199 10.7017 48.0819 11.8694L48.5889 9.01287H58.1376ZM38.8711 23.4351C38.8237 24.559 39.149 25.6611 39.7795 26.5132C40.1022 26.906 40.4939 27.2128 40.9278 27.4126C41.3618 27.6123 41.8276 27.7004 42.2934 27.6706C42.8745 27.688 43.4508 27.5454 43.9757 27.2544C44.5006 26.9635 44.9592 26.5324 45.3144 25.9961C46.1368 24.705 46.5477 23.1202 46.4763 21.5143C46.5237 20.3904 46.1984 19.2882 45.5679 18.4361C45.2444 18.0423 44.8516 17.7349 44.4163 17.535C43.9811 17.3352 43.5139 17.2478 43.0469 17.2787C42.4659 17.2614 41.8896 17.404 41.3647 17.6949C40.8398 17.9859 40.3811 18.417 40.026 18.9533C39.206 20.2455 38.7977 21.8301 38.8711 23.4351ZM67.3414 36.4454C65.3986 36.4487 63.4609 36.2149 61.56 35.7477C60.0383 35.4318 58.5694 34.8361 57.2081 33.9829L60.5037 26.3901C61.6913 27.2209 62.9807 27.8354 64.3274 28.2124C65.7007 28.6276 67.1128 28.8426 68.5314 28.8526C70.4187 28.8526 71.3623 28.4258 71.3623 27.5721C71.3623 27.2109 71.1158 26.9373 70.6229 26.7513C69.8541 26.5075 69.07 26.3346 68.2779 26.2341C66.8498 25.9981 65.4379 25.6442 64.0528 25.1753C62.8967 24.7706 61.8476 24.0307 61.0037 23.0246C60.5495 22.4447 60.1997 21.7646 59.9747 21.0244C59.7498 20.2843 59.6543 19.4991 59.6939 18.7152C59.6463 17.1834 59.9599 15.6656 60.6005 14.327C61.2411 12.9883 62.1843 11.88 63.3275 11.1224C66.1856 9.2543 69.4334 8.35048 72.7073 8.51216C74.3442 8.50649 75.978 8.67962 77.5873 9.02929C79.0225 9.32737 80.4204 9.83194 81.749 10.5314L78.4534 18.1242C76.3531 16.7479 73.9755 16.0508 71.5665 16.1049C70.8116 16.0536 70.0558 16.1878 69.3483 16.499C68.8788 16.7616 68.6441 17.0735 68.6441 17.4347C68.6441 17.7959 68.8835 18.0695 69.3624 18.2556C70.1673 18.5206 70.9858 18.7262 71.8129 18.8712C73.22 19.1082 74.6108 19.4621 75.9747 19.9301C77.1146 20.3429 78.1449 21.0889 78.9675 22.0971C79.4131 22.6727 79.7565 23.3456 79.9777 24.0768C80.1988 24.808 80.2935 25.5831 80.2561 26.3573C80.2984 28.3883 79.6881 30.3644 78.545 31.8979C77.291 33.5095 75.6844 34.6928 73.8973 35.3209C71.7774 36.1009 69.5641 36.4805 67.3414 36.4454ZM111.529 9.01287L97.3467 36.4947C96.3239 38.5879 95.0743 40.519 93.6286 42.2406C92.5296 43.5193 91.2092 44.5099 89.7556 45.1463C88.2118 45.754 86.5893 46.0456 84.9601 46.0082C83.6799 46.0061 82.4065 45.7905 81.1786 45.368C80.0908 45.0345 79.0661 44.4666 78.1577 43.6935L82.3053 35.9529C83.2885 36.8728 84.5092 37.379 85.7699 37.3894C86.2103 37.3979 86.6475 37.3011 87.0544 37.1048C87.4614 36.9086 87.8295 36.6171 88.136 36.2484L83.0658 9.01287H92.5724L94.9384 23.4925L102.199 9.01287H111.529Z" fill="white"/>
</g>
<defs>
<clipPath id="clip0_1_3">
<rect width="256" height="46" fill="white"/>
</clipPath>
</defs>
</svg>
