<svg width="267" height="39" viewBox="0 0 267 39" fill="none" xmlns="http://www.w3.org/2000/svg">
<g clip-path="url(#clip0_2_4)">
<path d="M122.254 3.16647L119.61 15.6584H136.003L135.606 17.5723H119.213L116.481 30.4818H114.234L120.403 1.25266H141.026L140.586 3.16647H122.254ZM145.433 8.68521H147.636L143.046 30.4818H140.843L145.433 8.68521ZM147.901 3.38221C147.68 3.38671 147.46 3.34828 147.256 3.26928C147.051 3.19028 146.866 3.0724 146.711 2.9229C146.556 2.78291 146.433 2.61435 146.35 2.42763C146.266 2.24091 146.224 2.03998 146.226 1.83724C146.222 1.59762 146.269 1.35972 146.364 1.13746C146.458 0.915197 146.599 0.713038 146.777 0.54281C146.955 0.364745 147.17 0.224333 147.41 0.130783C147.649 0.0372334 147.906 -0.00734125 148.165 -1.72479e-05C148.389 -0.00334722 148.612 0.0355428 148.82 0.114393C149.028 0.193244 149.217 0.310482 149.377 0.459297C149.537 0.596248 149.665 0.76375 149.753 0.950838C149.84 1.13793 149.885 1.34038 149.884 1.54495C149.891 1.79007 149.844 2.03396 149.746 2.26064C149.647 2.48732 149.499 2.69166 149.311 2.86026C149.124 3.03163 148.903 3.16604 148.661 3.25565C148.419 3.34527 148.16 3.38829 147.901 3.38221ZM156.361 24.1766C156.244 24.6842 156.182 25.202 156.178 25.7216C156.178 27.8094 157.353 28.8533 159.703 28.8533C161.062 28.8681 162.385 28.4379 163.449 27.6354L164.11 29.1804C162.701 30.2047 160.956 30.727 159.182 30.6558C157.776 30.7352 156.394 30.2935 155.326 29.424C154.853 28.9825 154.485 28.4507 154.245 27.8639C154.006 27.2772 153.901 26.6489 153.938 26.0209C153.938 25.4596 153.999 24.8998 154.121 24.3506L157.066 10.4738H152.792L153.145 8.67825H157.419L158.433 3.91808H160.636L159.622 8.67825H166.937L166.585 10.4738H159.27L156.361 24.1766ZM185.269 8.51819C187.458 8.38135 189.62 9.04653 191.306 10.3763C192.024 11.0362 192.584 11.8342 192.949 12.7166C193.314 13.5989 193.475 14.5451 193.421 15.4914C193.416 16.2911 193.328 17.0883 193.157 17.8715L190.513 30.4818H188.31L190.954 17.8715C191.106 17.185 191.179 16.4851 191.174 15.7837C191.223 15.045 191.1 14.3052 190.814 13.6163C190.529 12.9274 190.088 12.3061 189.522 11.796C188.15 10.7821 186.431 10.2861 184.696 10.4042C182.296 10.3253 179.947 11.0746 178.086 12.5128C176.21 14.1066 174.976 16.2692 174.598 18.6301L172.093 30.4818H169.89L174.48 8.68521H176.639L175.758 12.819C176.789 11.416 178.196 10.2989 179.834 9.58296C181.545 8.85709 183.402 8.49371 185.276 8.51819H185.269ZM201.486 20.0428C201.427 20.6552 201.398 21.1145 201.398 21.4208C201.329 22.4222 201.486 23.4261 201.858 24.3657C202.23 25.3052 202.809 26.1589 203.557 26.8699C205.339 28.2472 207.609 28.9268 209.902 28.7698C211.432 28.7849 212.95 28.5227 214.375 27.9973C215.668 27.5289 216.834 26.7944 217.79 25.8469L218.804 27.3083C217.709 28.4084 216.359 29.2519 214.86 29.7719C213.218 30.3615 211.475 30.6565 209.719 30.6418C206.926 30.792 204.178 29.9257 202.036 28.22C201.086 27.3584 200.343 26.3122 199.858 25.153C199.374 23.9938 199.16 22.7491 199.231 21.5043C199.195 19.1984 199.755 16.9192 200.861 14.8651C201.885 12.9545 203.439 11.3448 205.356 10.2093C207.285 9.07746 209.514 8.49078 211.783 8.51819C213.082 8.45422 214.383 8.63535 215.608 9.05107C216.834 9.4668 217.96 10.1089 218.921 10.94C219.827 11.819 220.53 12.8669 220.985 14.0171C221.44 15.1672 221.638 16.3945 221.565 17.621C221.555 18.4335 221.471 19.2437 221.316 20.0428H201.486ZM211.753 10.3137C209.384 10.2672 207.081 11.0558 205.29 12.5268C203.448 14.0596 202.199 16.1319 201.743 18.4143H219.458C219.492 18.0534 219.507 17.691 219.502 17.3287C219.558 16.3759 219.398 15.4226 219.033 14.5332C218.669 13.6437 218.107 12.8385 217.386 12.1718C215.833 10.8846 213.814 10.2185 211.753 10.3137ZM232.244 30.6558C230.498 30.6638 228.761 30.4029 227.103 29.8833C225.698 29.4877 224.398 28.8114 223.291 27.8999L224.481 26.2714C225.461 27.1217 226.627 27.7562 227.896 28.1295C229.351 28.5959 230.877 28.831 232.413 28.8255C234.338 28.9299 236.255 28.5174 237.943 27.6354C238.554 27.299 239.058 26.8135 239.403 26.2296C239.748 25.6457 239.921 24.9848 239.904 24.3158C239.922 23.9619 239.86 23.6084 239.724 23.2786C239.587 22.9488 239.378 22.6501 239.111 22.402C238.557 21.9146 237.894 21.5508 237.172 21.3372C236.409 21.1053 235.351 20.8478 234 20.5648C232.692 20.3292 231.404 20.0083 230.144 19.6044C229.188 19.2884 228.332 18.75 227.654 18.0385C226.941 17.2273 226.579 16.1905 226.64 15.1365C226.618 14.192 226.846 13.2572 227.304 12.4181C227.762 11.579 228.436 10.8626 229.262 10.3346C231.329 9.05164 233.772 8.42299 236.24 8.53906C237.685 8.536 239.124 8.72577 240.514 9.10277C241.721 9.39485 242.848 9.9288 243.819 10.6686L242.806 12.2971C241.896 11.6293 240.854 11.1396 239.743 10.8565C238.548 10.5361 237.312 10.3744 236.071 10.3763C234.209 10.2843 232.36 10.7205 230.761 11.629C230.158 11.9703 229.66 12.4549 229.316 13.0348C228.972 13.6146 228.794 14.2695 228.8 14.9347C228.78 15.2993 228.84 15.6638 228.977 16.0053C229.113 16.3467 229.323 16.6575 229.593 16.9181C230.163 17.4281 230.849 17.8067 231.598 18.0246C232.406 18.2751 233.485 18.5396 234.837 18.818C236.128 19.0503 237.401 19.3642 238.649 19.7575C239.582 20.0598 240.422 20.5762 241.094 21.2607C241.805 22.0485 242.168 23.0654 242.108 24.1001C242.134 25.0521 241.9 25.9944 241.429 26.8357C240.959 27.677 240.266 28.3887 239.42 28.902C237.271 30.1628 234.768 30.7745 232.244 30.6558ZM253.308 30.6558C251.562 30.6638 249.825 30.4029 248.167 29.8833C246.761 29.4877 245.462 28.8114 244.355 27.8999L245.545 26.2714C246.525 27.1217 247.691 27.7562 248.96 28.1295C250.415 28.5959 251.941 28.831 253.477 28.8255C255.402 28.9299 257.319 28.5174 259.007 27.6354C259.618 27.299 260.122 26.8135 260.467 26.2296C260.812 25.6457 260.985 24.9848 260.968 24.3158C260.986 23.9619 260.924 23.6084 260.787 23.2786C260.651 22.9488 260.442 22.6501 260.175 22.402C259.621 21.9146 258.958 21.5508 258.236 21.3372C257.472 21.1053 256.415 20.8478 255.063 20.5648C253.756 20.3292 252.468 20.0083 251.208 19.6044C250.252 19.2885 249.396 18.75 248.718 18.0385C248.005 17.2273 247.643 16.1905 247.704 15.1365C247.681 14.192 247.91 13.2572 248.368 12.4181C248.826 11.579 249.499 10.8626 250.326 10.3346C252.393 9.05164 254.836 8.42299 257.303 8.53906C258.749 8.536 260.188 8.72577 261.578 9.10277C262.785 9.39485 263.912 9.9288 264.883 10.6686L263.869 12.2971C262.959 11.6293 261.918 11.1396 260.807 10.8565C259.612 10.5361 258.376 10.3744 257.135 10.3763C255.272 10.2843 253.424 10.7205 251.824 11.629C251.222 11.9703 250.724 12.4549 250.38 13.0348C250.036 13.6146 249.858 14.2695 249.864 14.9347C249.844 15.2993 249.904 15.6638 250.04 16.0053C250.177 16.3467 250.387 16.6575 250.657 16.9181C251.226 17.4281 251.913 17.8067 252.662 18.0246C253.47 18.2751 254.549 18.5396 255.901 18.818C257.192 19.0503 258.465 19.3642 259.712 19.7575C260.648 20.0658 261.489 20.5895 262.158 21.2816C262.869 22.0694 263.232 23.0862 263.172 24.121C263.198 25.073 262.964 26.0152 262.493 26.8565C262.022 27.6978 261.33 28.4096 260.484 28.9229C258.332 30.1764 255.83 30.7807 253.308 30.6558Z" fill="#1D1C21"/>
<path d="M12.704 8.6852L11.999 12.1092H25.0354L23.5371 19.2077H10.4566L9.66345 23.0492H25.1308L23.5444 30.4818H-2.10236L4.06698 1.25266H29.1409L27.5545 8.6852H12.704ZM58.5334 7.6413L53.7301 30.4818H44.3439L44.7846 28.394C43.9291 29.203 42.9112 29.8415 41.7911 30.2718C40.671 30.7021 39.4713 30.9155 38.2627 30.8993C36.5868 30.8914 34.9437 30.4589 33.5035 29.6467C31.935 28.772 30.6477 27.5088 29.7799 25.993C28.7899 24.2577 28.2962 22.3071 28.3477 20.3351C28.3166 18.0038 28.9159 15.7039 30.0884 13.6542C31.1838 11.7151 32.8035 10.0867 34.7815 8.93574C36.6995 7.80793 38.9138 7.21463 41.1711 7.22375C42.4775 7.10152 43.7951 7.2983 44.9985 7.79533C46.2018 8.29237 47.2508 9.0731 48.0455 10.0631L48.5743 7.6413H58.5334ZM38.439 19.8688C38.3896 20.8217 38.7288 21.7561 39.3864 22.4786C39.723 22.8116 40.1315 23.0717 40.5841 23.241C41.0367 23.4104 41.5225 23.485 42.0084 23.4598C42.6144 23.4745 43.2155 23.3536 43.7629 23.107C44.3104 22.8603 44.7887 22.4948 45.1592 22.0401C46.0169 20.9455 46.4454 19.6019 46.371 18.2403C46.4204 17.2874 46.0812 16.353 45.4236 15.6306C45.0862 15.2967 44.6764 15.036 44.2225 14.8666C43.7686 14.6972 43.2813 14.6231 42.7942 14.6493C42.1883 14.6346 41.5872 14.7555 41.0397 15.0022C40.4923 15.2489 40.0139 15.6144 39.6435 16.069C38.7883 17.1646 38.3624 18.5081 38.439 19.8688ZM68.1326 30.8993C66.1064 30.9021 64.0854 30.7039 62.1028 30.3078C60.5158 30.0399 58.9837 29.5349 57.5639 28.8115L61.0011 22.3742C62.2397 23.0786 63.5846 23.5996 64.9892 23.9191C66.4214 24.2712 67.8942 24.4535 69.3738 24.462C71.3421 24.462 72.3263 24.1001 72.3263 23.3763C72.3263 23.0701 72.0692 22.8381 71.5551 22.6804C70.7533 22.4737 69.9355 22.3271 69.1094 22.2419C67.62 22.0418 66.1474 21.7418 64.7027 21.3442C63.4969 21.0012 62.4027 20.3738 61.5226 19.5209C61.0489 19.0292 60.684 18.4525 60.4494 17.825C60.2148 17.1975 60.1152 16.5318 60.1565 15.8672C60.1069 14.5685 60.4339 13.2817 61.1021 12.1467C61.7702 11.0118 62.7539 10.0721 63.9463 9.42985C66.9272 7.846 70.3145 7.07971 73.729 7.21679C75.4363 7.21198 77.1404 7.35877 78.8187 7.65522C80.3156 7.90795 81.7736 8.33574 83.1593 8.92878L79.7221 15.3661C77.5316 14.1993 75.0518 13.6082 72.5393 13.6542C71.7519 13.6106 70.9637 13.7244 70.2257 13.9882C69.7361 14.2109 69.4913 14.4754 69.4913 14.7816C69.4913 15.0878 69.741 15.3197 70.2404 15.4775C71.08 15.7022 71.9336 15.8765 72.7963 15.9994C74.2639 16.2004 75.7144 16.5004 77.1369 16.8972C78.3257 17.2472 79.4003 17.8797 80.2583 18.7345C80.7231 19.2225 81.0811 19.793 81.3118 20.4129C81.5425 21.0329 81.6413 21.69 81.6023 22.3463C81.6463 24.0683 81.0098 25.7437 79.8176 27.0439C78.5098 28.4102 76.8341 29.4134 74.9703 29.9459C72.7593 30.6072 70.4509 30.9291 68.1326 30.8993ZM114.219 7.6413L99.4273 30.9411C98.3605 32.7158 97.0571 34.3531 95.5494 35.8126C94.4032 36.8967 93.026 37.7366 91.51 38.2762C89.8997 38.7914 88.2076 39.0386 86.5084 39.0069C85.1731 39.0051 83.845 38.8223 82.5644 38.4641C81.4298 38.1814 80.3612 37.6999 79.4137 37.0444L83.7395 30.4818C84.7649 31.2617 86.0382 31.6908 87.353 31.6997C87.8123 31.7069 88.2682 31.6248 88.6927 31.4584C89.1172 31.292 89.5011 31.0449 89.8207 30.7323L84.5327 7.6413H94.4477L96.9155 19.9175L104.488 7.6413H114.219Z" fill="#FF378E"/>
</g>
<defs>
<clipPath id="clip0_2_4">
<rect width="267" height="39" fill="white"/>
</clipPath>
</defs>
</svg>
